<svg width="176" height="176" viewBox="0 0 176 176" fill="none" xmlns="http://www.w3.org/2000/svg">
<path  id="image 302 (Traced)" opacity="0.3" fill-rule="evenodd" clip-rule="evenodd" d="M77.6045 0.477116C72.2413 2.10165 69.2709 6.73561 69.2709 13.4757V16.7538L65.7785 18.3403L62.2861 19.9269L59.7715 17.5057C56.8469 14.6896 53.0522 12.8165 50.2722 12.8165C46.8151 12.8165 43.7803 14.741 37.9097 20.6554C32.0867 26.5217 29.6018 30.4423 29.6152 33.7411C29.6258 36.3242 31.6262 40.1755 34.4565 43.0598L37.0224 45.6748L35.7595 48.7859L34.4967 51.897H30.3528C25.3366 51.897 23.2467 52.6992 20.588 55.6455C18.1847 58.308 17.3041 62.2035 17.3041 70.1703C17.3041 74.6098 17.1672 75.3171 16.1787 75.9902C15.0723 76.7433 14.0799 79.8868 9.49843 97.1472C7.72206 103.839 2.77851 121.767 1.10272 127.593C-0.0450162 131.585 -0.274116 133.819 0.309811 135.34C0.626641 136.166 3.89831 137.378 10.8781 139.256C12.722 139.752 16.595 140.817 19.4844 141.622C25.2142 143.218 28.4501 143.175 31.0535 141.47C32.2929 140.657 32.6734 140.629 33.7032 141.27C34.3648 141.682 44.1519 149.206 55.4527 157.99C66.753 166.774 76.8072 174.401 77.7951 174.939C82.2 177.337 88.6913 175.52 91.8144 171.014L93.3253 168.835L96.2394 169.821C99.2372 170.835 101.076 170.743 104.282 169.414C106.235 168.604 109.369 165.135 109.851 163.25C110.116 162.217 110.445 162.082 112.072 162.347C114.14 162.682 117.94 161.46 119.867 159.839C121.658 158.333 124.032 154.554 124.032 153.206C124.032 152.236 124.607 151.793 126.818 151.059C129.932 150.025 133.078 146.858 134.116 143.713C134.68 142.007 134.933 141.839 136.945 141.839C138.16 141.839 140 141.486 141.033 141.054C142.733 140.344 143.082 140.374 144.717 141.368C147.69 143.176 151.066 143.264 156.442 141.675C159.054 140.903 162.825 139.84 164.823 139.313C174.787 136.681 175.997 136.023 176 133.233C176.001 132.282 175.495 129.744 174.876 127.593C174.257 125.443 172.611 119.535 171.219 114.465C169.826 109.396 167.162 99.717 165.298 92.9574C163.433 86.1978 161.65 79.7158 161.336 78.5527C161.022 77.3902 160.295 76.1874 159.721 75.8796C158.824 75.3997 158.676 74.6333 158.672 70.4524C158.667 64.071 157.778 58.8019 156.375 56.8321C155.754 55.96 154.34 54.5556 153.234 53.7115C151.461 52.359 150.642 52.1534 146.349 51.9836L141.476 51.7903L140.017 48.3524C139.214 46.4614 138.558 44.7788 138.558 44.6134C138.559 44.448 139.812 42.9799 141.342 41.3509C145.359 37.0734 146.286 32.6908 144.163 28.0149C142.743 24.8877 132.907 15.0723 129.582 13.4662C124.623 11.0696 119.624 12.2461 115.172 16.8577L112.738 19.3783L109.169 17.9007L105.6 16.4231L105.596 13.7377C105.586 7.63782 103.058 3.00331 98.6466 1.00057C96.7333 0.131873 94.995 -0.0267816 87.7107 0.00338518C82.9471 0.0229377 78.3991 0.23634 77.6045 0.477116ZM93.531 7.72274C97.3385 8.34786 97.7688 9.14784 97.7688 15.6052C97.7688 21.847 97.9465 22.1324 102.798 23.6916C104.488 24.2346 107.31 25.3983 109.068 26.277C113.734 28.6093 114.369 28.4619 119.003 23.9648C123.911 19.2012 124.884 19.0487 128.817 22.4285C133.619 26.5558 138.001 31.6975 138.001 33.2053C138.001 33.412 136.271 35.3768 134.157 37.5717C132.042 39.766 130.14 42.1274 129.928 42.8185C129.658 43.7023 130.202 45.4452 131.761 48.696C132.98 51.2378 134.263 54.3757 134.612 55.6701C134.984 57.0533 135.755 58.3147 136.483 58.7309C137.165 59.1203 140.356 59.5644 143.575 59.718C150.913 60.0683 150.834 59.9566 150.845 69.8239L150.853 76.8578L143.17 78.9522C134.426 81.3359 131.721 82.6409 130.105 85.2548C128.772 87.4106 128.711 87.4168 122.754 86.0012C120.23 85.4017 114.267 84.0275 109.503 82.9476C104.74 81.8677 98.4533 80.4097 95.5336 79.708C91.7719 78.8041 88.5796 78.4371 84.5781 78.4477C79.2049 78.4617 78.731 78.5622 74.7994 80.5209C72.5269 81.6527 69.9654 83.1928 69.1077 83.9431C67.9141 84.9867 66.4691 85.4487 62.9611 85.909C57.5711 86.6168 48.5635 87.6464 47.7449 87.6486C47.4308 87.6497 46.6899 86.752 46.0981 85.6542C44.3821 82.4677 42.1978 81.4717 28.8988 77.8092L25.127 76.7707L25.1354 69.7803C25.1466 59.9622 25.0706 60.0683 32.4052 59.718C35.6243 59.5644 38.8155 59.1203 39.4967 58.7309C40.2108 58.3231 40.9931 57.0639 41.3451 55.7584C41.6804 54.5126 42.8248 51.5853 43.8876 49.2535C44.9867 46.8424 45.6807 44.5732 45.4963 43.9933C45.3181 43.4319 43.4283 41.19 41.2965 39.0119C39.0251 36.6913 37.4202 34.5729 37.4202 33.8952C37.4202 31.3623 47.9365 20.6129 50.4142 20.6129C51.2613 20.6129 53.0069 21.9302 55.5371 24.4793C57.6476 26.606 59.8408 28.468 60.4102 28.6166C60.9796 28.7658 63.3947 27.9457 65.7773 26.7949C68.1594 25.6441 71.4317 24.2642 73.0482 23.7285C74.6642 23.1927 76.2361 22.2888 76.5406 21.7201C76.8446 21.1514 77.0938 18.3297 77.0938 15.4494C77.0938 8.85902 77.5135 8.18809 81.9301 7.71771C86.6948 7.2099 90.4174 7.21158 93.531 7.72274ZM79.8877 39.5068C66.1456 43.1129 56.3674 55.7891 56.2149 70.196C56.1629 75.0925 56.2535 75.5512 57.4682 76.5344C59.1317 77.8813 60.9668 77.8841 62.6236 76.5427C63.7518 75.6294 63.9065 75.0562 63.7937 72.201C63.2891 59.4331 71.8938 48.5703 84.2926 46.3223C94.4909 44.4737 105.227 50.4138 110.021 60.5571C111.618 63.9364 111.876 65.1235 112.075 70.0301C112.273 74.8903 112.46 75.7701 113.479 76.617C115.009 77.8885 116.877 77.8578 118.512 76.5344C119.726 75.5517 119.817 75.0925 119.762 70.2496C119.559 52.4886 105.591 38.5538 87.9901 38.5538C85.5314 38.5538 81.8854 38.9828 79.8877 39.5068ZM26.2602 85.1207C27.9416 85.5749 29.9465 86.1023 30.7148 86.2922C35.3097 87.4285 39.1771 88.991 39.6688 89.91C40.027 90.5787 40.0448 91.7239 39.7191 93.0747C38.9899 96.0975 36.605 104.955 34.937 110.834C33.4585 116.046 32.2839 120.322 30.1041 128.431C28.4367 134.634 27.8388 135.333 24.6196 134.851C23.2512 134.646 20.6048 134.031 18.7396 133.485C16.8744 132.94 13.777 132.042 11.8559 131.491C9.9354 130.94 8.36354 130.351 8.36354 130.182C8.36354 129.832 13.9665 109.379 15.5763 103.851C16.158 101.854 17.5555 96.826 18.682 92.6781C19.808 88.5301 20.8378 84.8045 20.9702 84.3995C21.1071 83.9789 21.6369 83.7984 22.2063 83.9789C22.7539 84.1526 24.5783 84.6666 26.2602 85.1207ZM155.025 84.4381C155.149 84.8224 156.172 88.5301 157.298 92.6781C158.425 96.826 159.822 101.854 160.404 103.851C162.014 109.379 167.617 129.832 167.617 130.182C167.617 130.486 165.839 131.042 156.239 133.742C148.164 136.013 147.874 135.865 145.876 128.431C143.707 120.362 142.525 116.058 141.044 110.834C137.056 96.7629 135.744 90.9709 136.305 89.9212C136.863 88.8799 139.967 87.7078 147.5 85.6956C149.498 85.1621 151.761 84.5235 152.529 84.2766C154.518 83.6381 154.772 83.6549 155.025 84.4381ZM95.2542 87.5302C97.7129 88.1441 104.502 89.7072 110.341 91.0044C116.181 92.301 122.716 93.7887 124.863 94.3104L128.768 95.2585L129.794 98.8561C131.249 103.962 132.062 106.915 134.626 116.42C135.87 121.029 137.243 126.057 137.678 127.593C139.369 133.571 139.366 133.915 137.618 134.131C134.764 134.485 133.054 133.596 125.852 128.017C121.931 124.98 116.313 120.625 113.368 118.341C78.8886 91.5915 80.1157 92.4049 77.6341 94.6501C75.9192 96.2015 76.1858 98.9885 78.2114 100.693C79.1334 101.468 79.8877 102.313 79.8877 102.571C79.8877 103.599 76.3087 107.288 73.9976 108.642C72.2542 109.664 70.6857 110.096 68.5903 110.132C65.0917 110.193 62.0067 109.568 62.0067 108.798C62.0067 108.496 63.8294 105.184 66.0579 101.44C68.2863 97.6964 70.2727 94.2395 70.4722 93.7574C71.2081 91.9842 76.7122 87.6307 79.2507 86.814C82.5894 85.7397 89.2814 86.0391 95.2542 87.5302ZM60.6298 95.4322C60.1644 96.3322 58.1466 99.7678 56.1456 103.067C54.1446 106.365 52.5074 109.564 52.5074 110.175C52.5074 111.823 56.5747 115.274 60.1158 116.628C64.4117 118.272 70.7924 118.257 75.228 116.594C77.7319 115.655 79.4234 114.433 82.5006 111.34L86.5099 107.31L93.6762 112.855C97.6173 115.904 103.231 120.207 106.151 122.415C111.852 126.729 117.036 130.769 123.054 135.591C126.141 138.065 126.825 138.906 126.825 140.226C126.825 142.024 125.112 144.075 123.612 144.072C122.613 144.07 117.915 140.668 105.647 131.064C98.398 125.388 96.9736 124.804 94.5407 126.508C93.3169 127.365 92.9599 129.134 93.6489 130.928C93.8416 131.43 96.0416 133.38 98.5382 135.261C112.776 145.99 116.767 149.395 116.767 150.811C116.767 152.23 114.593 154.688 113.337 154.688C112.222 154.688 108.633 152.117 94.2976 141.05C89.8352 137.605 86.117 135.135 85.3934 135.135C83.8841 135.135 81.5641 137.197 81.5641 138.539C81.5641 140.554 82.4788 141.465 91.8216 148.748C103.6 157.928 103.719 158.052 102.835 160.185C102.466 161.074 101.561 162.124 100.822 162.519C99.6306 163.157 99.2087 163.061 97.0871 161.667C95.7717 160.803 93.4382 159.046 91.9016 157.763C90.3649 156.48 88.0694 154.698 86.7999 153.802C85.5309 152.907 82.4101 150.561 79.8654 148.589C73.8529 143.93 71.1456 143.801 70.0861 148.12C69.624 150.003 70.7572 151.183 79.7804 158.215C85.6409 162.783 86.0874 163.266 85.927 164.865C85.8198 165.941 85.2045 166.997 84.2881 167.678C83.0298 168.613 82.6325 168.667 81.4942 168.058C80.1392 167.334 50.161 144.414 44.3922 139.691C43.7708 139.182 41.8106 137.658 40.0365 136.305C36.2334 133.402 36.1853 135.109 40.5081 119.493C42.1665 113.502 44.3151 105.66 45.2823 102.068L47.0408 95.5367L49.9141 95.192C51.4937 95.002 54.4212 94.6423 56.4188 94.392C58.4165 94.1417 60.3717 93.9054 60.7639 93.8663C61.3065 93.8121 61.2747 94.1859 60.6298 95.4322Z" fill="white"/>
</svg>
