<svg width="190" height="173" viewBox="0 0 190 173" fill="none" xmlns="http://www.w3.org/2000/svg">
<path opacity="0.3" fill-rule="evenodd" clip-rule="evenodd" d="M133.07 5.12874C112.385 10.6019 112.431 10.5843 112.431 12.9849C112.431 14.2614 113.366 15.1326 118.643 18.7701C120.938 20.3521 122.815 21.7897 122.815 21.965C122.815 22.6609 117.154 29.8726 113.24 34.1632C109.62 38.1311 109.093 38.8736 109.093 40.0051C109.093 41.5218 110.453 42.8457 112.017 42.8509C114.547 42.8595 129.862 24.1385 129.862 21.0379C129.862 19.783 128.927 18.7839 125.527 16.405C123.49 14.98 122.509 14.0861 122.843 13.9616C123.691 13.6453 150.416 6.70474 150.473 6.78604C150.558 6.91022 153.237 34.4112 153.232 35.1093C153.227 35.6072 152.399 35.1865 149.744 33.3379C147.569 31.8238 145.888 30.9138 145.265 30.9138C144.066 30.9138 143.377 31.6064 138.948 37.2622C137.112 39.6068 133.494 43.7187 130.908 46.3994C108.796 69.3192 78.8458 83.8512 43.2707 88.9215C35.0397 90.0944 29.2004 90.4938 29.4073 89.8695C29.4908 89.6185 32.8928 88.2816 36.9678 86.8984C59.7695 79.1586 79.3394 69.2883 96.0551 57.0961C102.682 52.2629 106.287 49.1411 106.435 48.1096C106.668 46.481 106.146 45.4286 104.832 44.8767C103.145 44.1674 102.761 44.3624 97.4106 48.6489C80.8692 61.902 58.8627 73.3853 34.1748 81.6464C30.4028 82.9088 26.7861 84.2674 26.1378 84.6657C25.4836 85.0673 24.5968 86.1417 24.1455 87.0793C22.6476 90.1902 23.871 93.9482 26.8843 95.4944C28.2595 96.1996 28.8184 96.2571 32.3172 96.0542C37.5152 95.7525 46.6849 94.5468 52.7794 93.3639C80.9271 87.9001 105.055 76.7782 125.04 60.0546C129.418 56.3916 137.757 47.9328 141.821 43.034C143.863 40.5727 145.661 38.4179 145.816 38.2456C145.971 38.0733 148.301 39.483 150.992 41.3779C156.454 45.2235 157.554 45.5506 159.067 43.7814C159.526 43.2447 159.901 42.6055 159.899 42.3605C159.897 42.1155 158.991 32.8542 157.884 21.7793L155.872 1.64334L154.899 0.80201C154.364 0.339204 153.56 -0.0210462 153.113 0.000956654C152.665 0.0233324 143.646 2.33102 133.07 5.12874ZM146.102 68.5752C144.391 69.094 142.786 70.4899 142.065 72.0856C141.404 73.5501 141.374 75.5785 141.367 120.324L141.358 167.033H136.908H132.458V130.51C132.458 105.612 132.332 93.6533 132.063 92.9376C131.526 91.5089 129.926 89.8524 128.483 89.2314C126.977 88.5833 105.313 88.4815 103.647 89.1147C102.226 89.6543 100.579 91.2635 99.9611 92.715C99.539 93.7066 99.4504 100.26 99.4504 130.474V167.033H95.007H90.5641L90.4639 140.248L90.3642 113.463L89.4433 112.111C88.9371 111.369 87.9127 110.416 87.1677 109.995C85.8804 109.267 85.2273 109.229 74.0735 109.229C63.0695 109.229 62.2432 109.276 60.8813 109.974C59.9846 110.434 59.0678 111.339 58.4855 112.338L57.5424 113.956V127.645V141.335L58.4529 142.25C59.6619 143.466 61.2292 143.448 62.3919 142.204L63.2909 141.242L63.4763 128.126L63.6617 115.009H74.046H84.4303L84.5256 141.021L84.6209 167.033H74.0486H63.4763L63.4707 159.108C63.4648 150.505 63.3094 149.696 61.4907 148.819C60.2761 148.233 58.5033 148.77 57.8992 149.905C57.7015 150.276 57.5424 154.249 57.5424 158.804V167.033H53.092H48.6416V150.929C48.6416 135.279 48.6194 134.777 47.855 133.19C47.381 132.205 46.4702 131.158 45.5642 130.555L44.0599 129.554H32.1651C18.8625 129.554 18.8914 129.548 16.8591 132.228L15.8199 133.597L15.716 150.315L15.6126 167.033H8.81236C2.49464 167.033 1.94316 167.088 1.03528 167.806C-0.345092 168.898 -0.345092 171.135 1.03528 172.227L2.01251 173H95H187.988L188.965 172.227C190.345 171.135 190.345 168.898 188.965 167.806C188.057 167.088 187.505 167.033 181.177 167.033H174.366V140.209V113.385L173.388 112.613C172.148 111.632 171.02 111.632 169.78 112.613L168.803 113.385V140.209V167.033H158.046H147.289L147.383 120.697L147.478 74.3601L157.836 74.2609C165.876 74.1837 168.262 74.2673 168.493 74.6339C168.657 74.8934 168.794 81.7393 168.797 89.8468C168.803 105.835 168.809 105.886 170.837 106.397C171.917 106.67 173.788 105.834 174.135 104.924C174.551 103.835 174.397 73.5594 173.97 72.4265C173.408 70.9337 172.188 69.7082 170.471 68.9116C169.131 68.2896 167.932 68.2254 158.047 68.2471C152.03 68.2601 146.655 68.4078 146.102 68.5752ZM126.524 130.859V167.033H115.954H105.384V130.859V94.6848H115.954H126.524V130.859ZM42.6191 151.277L42.7159 167.033H31.9567H21.1975V151.774C21.1975 143.381 21.2998 136.246 21.4248 135.918C21.6269 135.389 22.8137 135.334 32.0872 135.422L42.5223 135.521L42.6191 151.277Z" fill="white"/>
</svg>
