<svg width="154" height="176" viewBox="0 0 154 176" fill="none" xmlns="http://www.w3.org/2000/svg">
<path id="image 301 (Traced)" opacity="0.3" fill-rule="evenodd" clip-rule="evenodd" d="M71.4104 2.41513C65.2648 7.59866 58.3469 26.0941 58.3469 37.3409C58.3469 42.4507 58.1149 42.9662 52.8209 49.6142C49.7817 53.4314 47.0145 57.6753 46.6707 59.0455C46.1666 61.061 47.3285 63.7667 52.7547 73.2035C60.4413 86.5714 61.1457 87.3756 63.8775 85.9102C65.5266 85.0257 65.8015 83.9853 65.8043 78.6075L65.8071 72.3359L67.6537 75.3713C69.4901 78.3898 69.5404 78.4067 76.981 78.4067C84.4217 78.4067 84.472 78.3898 86.3084 75.3713L88.155 72.3359L88.1578 78.6075C88.1606 83.9853 88.4355 85.0257 90.0846 85.9102C92.8164 87.3756 93.5207 86.5714 101.207 73.2035C106.634 63.7667 107.795 61.061 107.291 59.0455C106.948 57.6753 104.18 53.4314 101.141 49.6142C95.8472 42.9662 95.6152 42.4507 95.6152 37.3409C95.6152 30.0065 92.6105 18.8829 88.5249 11.088C82.7921 0.153051 77.3575 -2.60123 71.4104 2.41513ZM79.0988 8.12542C81.6955 11.0039 86.2497 21.1347 87.6789 27.2139C90.5672 39.4928 88.9228 55.6056 83.6931 66.2651C81.1961 71.3561 81.1365 71.4019 76.981 71.4019C72.8256 71.4019 72.766 71.3561 70.269 66.2651C65.0393 55.6056 63.3949 39.4928 66.2832 27.2139C68.2826 18.7101 74.5912 6.49097 76.981 6.49097C77.3351 6.49097 78.2873 7.22601 79.0988 8.12542ZM73.7201 24.1505C68.9609 26.1931 66.9875 31.0805 68.987 35.8765C72.0318 43.1811 81.9144 43.2184 84.95 35.9372C85.7084 34.1159 86.0773 31.6194 85.7689 30.3875C84.5773 25.628 78.0944 22.2723 73.7201 24.1505ZM78.5854 30.8881C80.0166 32.3227 79.0206 34.5101 76.9363 34.5101C74.6471 34.5101 73.7648 32.8747 75.1512 31.2001C76.504 29.5666 77.2037 29.5031 78.5854 30.8881ZM60.036 66.5238L58.7959 70.7883L55.8471 65.4506L52.8973 60.1139L55.8545 56.2884L58.8127 52.4619L60.0444 57.3606C61.0684 61.429 61.0665 62.9812 60.036 66.5238ZM98.1243 65.4348L95.1717 70.778L93.9708 66.8871C93.0269 63.8293 93.0008 61.8511 93.8487 57.6492L94.9286 52.3022L98.0023 56.1969L101.077 60.0915L98.1243 65.4348ZM20.1468 74.4737C-4.33761 83.706 -4.14289 83.2521 11.849 93.7789L23.1413 101.212L12.5943 104.752C1.20699 108.574 -0.782211 109.815 0.23242 112.466C0.634918 113.517 10.2017 118.757 25.247 126.167L49.6111 138.166L63.0762 133.644L76.5422 129.121L90.4852 133.602L104.428 138.082L128.751 126.132C143.392 118.938 153.326 113.52 153.709 112.52C154.773 109.74 152.651 108.411 141.537 104.903L130.873 101.536L141.832 94.2197C153.288 86.5705 155.142 84.7371 153.467 82.7132C152.92 82.0529 143.646 78.2189 132.858 74.1945C114.431 67.3186 113.146 66.9711 111.665 68.4552C108.873 71.2553 111.499 73.041 127.253 79.0558C135.588 82.2378 142.577 85.0098 142.783 85.2162C142.989 85.4236 138.683 88.5683 133.212 92.2051L123.267 98.8186L112.278 93.296C100.724 87.4905 98.0973 87.1122 98.593 91.3263C98.8315 93.3511 100.283 94.4252 107.727 98.0817L116.579 102.429L101.671 109.912C93.4723 114.028 84.5139 118.362 81.7644 119.544L76.7649 121.692L57.2978 111.971L37.8315 102.249L46.6912 97.7912C55.7232 93.2456 57.3285 91.3207 54.2343 88.7476C53.188 87.8771 50.6491 88.7877 41.8891 93.1774L30.8614 98.7037L20.6741 91.8605C14.4624 87.6875 11.0086 84.8352 11.8229 84.5513C24.3926 80.1625 41.427 73.3483 42.492 72.2826C44.047 70.7266 42.8721 67.822 40.5447 67.4689C39.831 67.3606 30.6518 70.5127 20.1468 74.4737ZM70.5467 84.371C69.8199 85.2489 69.5581 89.9851 69.7342 99.081C69.9923 112.426 70.0053 112.498 72.2172 112.811C73.4406 112.985 74.7962 112.565 75.2313 111.877C76.504 109.865 76.2403 85.5095 74.9313 84.1973C73.4545 82.7169 71.865 82.7795 70.5467 84.371ZM79.0308 84.1973C77.7217 85.5095 77.4581 109.865 78.7308 111.877C79.1659 112.565 80.5215 112.985 81.7449 112.811C83.9567 112.498 83.9698 112.426 84.2279 99.081C84.485 85.7841 83.98 83.0765 81.2464 83.0765C80.6427 83.0765 79.6457 83.5808 79.0308 84.1973ZM61.3637 102.841C58.6674 105.544 60.9883 110.688 64.5912 109.993C67.1692 109.495 66.9913 102.327 64.3918 101.954C63.3613 101.805 61.9982 102.205 61.3637 102.841ZM87.1972 103.685C85.6217 106.637 87.4497 110.393 90.2672 109.992C92.0319 109.74 92.3542 109.117 92.3542 105.959C92.3542 102.83 92.0235 102.176 90.3213 101.932C88.9898 101.743 87.9109 102.348 87.1972 103.685ZM49.9615 115.727C70.3175 126.038 69.6578 124.742 56.6791 128.917L49.886 131.101L31.3291 121.837C21.1223 116.742 12.9931 112.346 13.2633 112.068C14.141 111.166 28.0113 106.572 29.9297 106.549C30.9546 106.536 39.9689 110.666 49.9615 115.727ZM132.415 108.877C136.515 110.224 140.177 111.603 140.552 111.94C140.925 112.277 132.871 116.726 122.653 121.827L104.076 131.101L97.283 128.917C84.3043 124.742 83.6446 126.038 104.001 115.727C113.993 110.666 122.796 106.503 123.564 106.475C124.331 106.448 128.314 107.529 132.415 108.877ZM28.7651 135.997C27.9713 136.318 27.6004 138.815 27.6004 143.831V151.195L52.2693 163.597L76.9373 176L101.262 163.861C114.642 157.185 125.971 151.015 126.441 150.15C127.72 147.79 127.467 138.776 126.067 136.856C125.393 135.932 124.031 135.33 123.039 135.52C121.548 135.805 121.189 136.79 120.957 141.244L120.677 146.625L101.167 156.413C90.4359 161.795 81.443 166.2 81.1821 166.2C80.9212 166.2 80.7079 160.288 80.7079 153.063C80.7079 139.402 80.0203 136.313 76.981 136.313C73.9418 136.313 73.2542 139.402 73.2542 153.063C73.2542 160.288 73.0474 166.2 72.7939 166.2C72.5414 166.2 63.7368 161.897 53.228 156.637L34.1224 147.075V143.034C34.1224 136.787 32.4015 134.526 28.7651 135.997Z" fill="white"/>
</svg>
